<?xml version="1.0" encoding="UTF-8" standalone="no"?>
<svg
   xmlns:dc="http://purl.org/dc/elements/1.1/"
   xmlns:cc="http://creativecommons.org/ns#"
   xmlns:rdf="http://www.w3.org/1999/02/22-rdf-syntax-ns#"
   xmlns:svg="http://www.w3.org/2000/svg"
   xmlns="http://www.w3.org/2000/svg"
   xmlns:sodipodi="http://sodipodi.sourceforge.net/DTD/sodipodi-0.dtd"
   xmlns:inkscape="http://www.inkscape.org/namespaces/inkscape"
   height="72.075409"
   version="1.0"
   viewBox="0 0 72.225136 72.075409"
   width="72.225136"
   xml:space="preserve"
   id="svg2"
   inkscape:version="0.91 r13725"
   sodipodi:docname="chef.svg"><metadata
     id="metadata78"><rdf:RDF><cc:Work
         rdf:about=""><dc:format>image/svg+xml</dc:format><dc:type
           rdf:resource="http://purl.org/dc/dcmitype/StillImage" /><dc:title></dc:title></cc:Work></rdf:RDF></metadata><defs
     id="defs76" /><sodipodi:namedview
     pagecolor="#ffffff"
     bordercolor="#666666"
     borderopacity="1"
     objecttolerance="10"
     gridtolerance="10"
     guidetolerance="10"
     inkscape:pageopacity="0"
     inkscape:pageshadow="2"
     inkscape:window-width="1366"
     inkscape:window-height="707"
     id="namedview74"
     showgrid="false"
     fit-margin-top="0"
     fit-margin-left="0"
     fit-margin-right="0"
     fit-margin-bottom="0"
     inkscape:zoom="6.0682617"
     inkscape:cx="34.225814"
     inkscape:cy="35.509813"
     inkscape:window-x="0"
     inkscape:window-y="27"
     inkscape:window-maximized="1"
     inkscape:current-layer="Multicolor" /><g
     id="Artboard"
     transform="translate(-6.9591134,-15.260892)" /><g
     id="Multicolor"
     transform="translate(-6.9591134,-15.260892)"><g
       id="g10"
       transform="translate(-15.179297,-0.16377)"><path
         d="M 83,80 C 82.385,78.667 81.302,77.606 79.957,77.018 L 65,73 65,67.999 61.757,71.24 c -1.125,1.125 -2.651,1.757 -4.242,1.757 l -2.515,0 -2.516,0 c -1.591,0 -3.116,-0.632 -4.242,-1.757 L 45,67.999 45,73 30.043,77.018 C 28.698,77.606 27.615,78.667 27,80 l -4,7 32,0 32,0 -4,-7 z"
         style="fill:#ffffff"
         id="path12"
         inkscape:connector-curvature="0" /><path
         d="m 70,49 c -0.423,0 -0.741,0.102 -1.004,0.243 -0.007,-0.767 0.034,-1.515 0,-2.243 L 41.063,47 C 41.018,47.965 41.001,48.966 41,50 l 0,12.343 c 0,1.061 0.422,2.079 1.172,2.829 l 6.071,6.068 c 1.125,1.125 2.651,1.757 4.242,1.757 l 2.515,0 2.516,0 c 1.591,0 3.116,-0.632 4.242,-1.757 l 6.071,-6.068 c 0.75,-0.75 1.172,-1.768 1.172,-2.829 l 0,-3.53 c 2.226,-0.873 3,-4.66 3,-7.59 C 72,50.111 71,49 70,49 Z"
         style="fill:#bf8662"
         id="path14"
         inkscape:connector-curvature="0" /><g
         id="g16"><circle
           cx="55"
           cy="84"
           r="2"
           style="fill:#f3b607"
           id="circle18" /></g><g
         id="g20"><circle
           cx="55"
           cy="77"
           r="2"
           style="fill:#f3b607"
           id="circle22" /></g><path
         d="m 41.063,47 c -0.034,0.728 -0.052,1.476 -0.059,2.243 C 40.741,49.102 40.423,49 40,49 c -1,0 -2,1.111 -2,2.222 0,2.931 0.774,6.717 3,7.59 l 0,3.53 c 0,1.061 0.422,2.079 1.172,2.829 l 6.071,6.068 c 1.125,1.125 2.651,1.757 4.242,1.757 L 55,72.996 55,47 41.063,47 Z"
         style="fill:#cc9978"
         id="path24"
         inkscape:connector-curvature="0" /><g
         id="g26"><path
           d="m 51,62 8,0 c 0,0 0,3 -4,3 -4,0 -4,-3 -4,-3 z"
           style="fill:#9c6144"
           id="path28"
           inkscape:connector-curvature="0" /></g><g
         id="g30"><path
           d="m 51.994,50.997 c 0,-1.104 -0.896,-2 -2,-2 -0.002,0 -0.004,0 -0.006,0 10e-4,0.021 0.006,0.041 0.006,0.062 0,1.103 -0.892,1.996 -1.994,2 0.033,1.075 0.91,1.938 1.994,1.938 1.104,0 2,-0.895 2,-2 z"
           style="fill:#3e3e3f"
           id="path32"
           inkscape:connector-curvature="0" /></g><g
         id="g34"><path
           d="m 61.987,50.997 c 0,-1.104 -0.896,-2 -2,-2 -0.002,0 -0.004,0 -0.006,0 10e-4,0.021 0.006,0.041 0.006,0.062 0,1.103 -0.892,1.996 -1.994,2 0.033,1.075 0.91,1.938 1.994,1.938 1.105,0 2,-0.895 2,-2 z"
           style="fill:#3e3e3f"
           id="path36"
           inkscape:connector-curvature="0" /></g><g
         id="g38"><g
           id="g40"><path
             d="M 72,31.5 C 72,27.91 69.09,25 65.5,25 63.998,25 62.618,25.515 61.517,26.371 60.067,24.333 57.691,23 55,23 52.309,23 49.933,24.333 48.483,26.371 47.382,25.515 46.002,25 44.5,25 40.91,25 38,27.91 38,31.5 c 0,2.3 1.198,4.316 3,5.472 L 41,47 69,47 69,36.972 C 70.802,35.816 72,33.8 72,31.5 Z"
             style="fill:#f1f2f2"
             id="path42"
             inkscape:connector-curvature="0" /></g><g
           id="g44"><rect
             height="9"
             style="fill:#e2e4e5"
             width="2"
             x="61"
             y="36"
             id="rect46" /></g><g
           id="g48"><path
             d="m 55,47 0,-24 c -2.691,0 -5.067,1.333 -6.517,3.371 C 47.382,25.515 46.002,25 44.5,25 40.91,25 38,27.91 38,31.5 c 0,2.3 1.198,4.316 3,5.472 L 41,47 55,47 Z"
             style="fill:#ffffff"
             id="path50"
             inkscape:connector-curvature="0" /></g><g
           id="g52"><rect
             height="9"
             style="fill:#e2e4e5"
             width="2"
             x="54"
             y="36"
             id="rect54" /></g><g
           id="g56"><rect
             height="9"
             style="fill:#e2e4e5"
             width="2"
             x="47"
             y="36"
             id="rect58" /></g></g><polygon
         points="66,53 67,53 69,49 69,47 66,47 "
         style="fill:#3e3e3f"
         id="polygon60" /><polygon
         points="41,49 43,53 44,53 44,47 41,47 "
         style="fill:#3e3e3f"
         id="polygon62" /><g
         id="g64"><g
           id="g66"><path
             d="m 55,60 c -2,-3 -7,-1 -9,2 3,0 9,0 9,0 l 0,-2 z"
             style="fill:#3e3e3f"
             id="path68"
             inkscape:connector-curvature="0" /></g><g
           id="g70"><path
             d="m 55,60 c 2,-3 7,-1 9,2 -3,0 -9,0 -9,0 l 0,-2 z"
             style="fill:#3e3e3f"
             id="path72"
             inkscape:connector-curvature="0" /></g></g></g><path
       style="fill:none;stroke:#2c3e50;stroke-opacity:1"
       d="m 39.820711,22.83616 c -2.691,0 -5.067578,1.33114 -6.517578,3.36914 -1.101,-0.856 -2.480422,-1.36914 -3.982422,-1.36914 -3.59,0 -6.5,2.91 -6.5,6.5 0,2.3 1.198,4.314703 3,5.470703 l 0,10.029297 0,2 0.0098,0.01953 c -9.17e-4,0.07579 -0.0052,0.146491 -0.0059,0.222656 -0.263,-0.141 -0.580906,-0.242187 -1.003906,-0.242187 -1,0 -2,1.109703 -2,2.220703 0,2.931 0.774,6.716844 3,7.589844 l 0,3.53125 c 0,0.26525 0.02489,0.526844 0.07617,0.783203 0,0 0,0.002 0,0.002 0.102678,0.512047 0.305987,0.999144 0.595703,1.433594 0,0 0,0.002 0,0.002 0.144838,0.217017 0.312859,0.420281 0.5,0.607422 0,0 0,0.002 0,0.002 l 2.828125,2.826172 0,5.001953 -14.957031,4.017578 c -1.345,0.588 -2.427969,1.649422 -3.042969,2.982422 l -3.9999998,7 31.9999998,0 32,0 -4,-7 c -0.615,-1.333 -1.697969,-2.394422 -3.042969,-2.982422 L 49.820703,72.8363 l 0,-5.001953 2.828125,-2.826172 c 0.75,-0.75 1.171875,-1.769078 1.171875,-2.830078 l 0,-3.529297 c 2.226,-0.873 3,-4.659844 3,-7.589844 -0.001,-1.112 -1,-2.222656 -2,-2.222656 -0.423,0 -0.740907,0.101187 -1.003907,0.242187 -7.33e-4,-0.08039 0.0018,-0.15831 0.002,-0.238281 l 0.002,-0.0039 0,-0.212891 c 0.0044,-0.45575 0.0054,-0.904002 0,-1.345703 l 0,-0.441406 0,-10.029297 c 1.802,-1.156 3,-3.170703 3,-5.470703 0,-3.59 -2.91,-6.5 -6.5,-6.5 -1.502,0 -2.883375,0.51314 -3.984375,1.36914 -1.45,-2.037999 -3.824625,-3.36914 -6.515625,-3.36914 z"
       id="path4176"
       inkscape:connector-curvature="0" /><path
       d="m 59.614396,25.284476 c 0,-5.250448 4.295821,-9.54627 9.54627,-9.54627 5.250449,0 9.546272,4.295822 9.546272,9.54627 0,3.627584 -2.482031,6.586928 -4.964062,8.352988 -3.15027,2.243374 -9.546271,4.343554 -9.546271,4.343554 l 0,-4.534479 0,0 c -2.720687,-1.622866 -4.582209,-4.677673 -4.582209,-8.162063 z"
       id="path4989"
       inkscape:connector-curvature="0"
       style="fill:#3b97d3" /><path
       d="m 59.614396,25.284476 c 0,-5.250448 4.295821,-9.54627 9.54627,-9.54627 5.250449,0 9.546272,4.295822 9.546272,9.54627 0,3.627584 -2.482031,6.586928 -4.964062,8.352988 -3.15027,2.243374 -9.546271,4.343554 -9.546271,4.343554 l 0,-4.534479 0,0 c -2.720687,-1.622866 -4.582209,-4.677673 -4.582209,-8.162063 z"
       stroke-miterlimit="10"
       id="path4991"
       inkscape:connector-curvature="0"
       style="fill:none;stroke:#2c3e50;stroke-width:0.9546271;stroke-linecap:round;stroke-linejoin:round;stroke-miterlimit:10" /><circle
       cx="-70.306221"
       cy="24.13892"
       r="4.1048965"
       id="circle4993"
       transform="scale(-1,1)"
       style="fill:#2980ba" /><text
       xml:space="preserve"
       style="font-style:normal;font-weight:normal;font-size:5.11030149px;line-height:125%;font-family:sans-serif;letter-spacing:0px;word-spacing:0px;fill:#000000;fill-opacity:1;stroke:none;stroke-width:1px;stroke-linecap:butt;stroke-linejoin:miter;stroke-opacity:1"
       x="62.309616"
       y="26.697369"
       id="text5557"
       sodipodi:linespacing="125%"><tspan
         sodipodi:role="line"
         id="tspan5559"
         x="62.309616"
         y="26.697369"
         style="font-style:normal;font-variant:normal;font-weight:normal;font-stretch:normal;font-family:Purisa;-inkscape-font-specification:Purisa">NEW!</tspan></text>
</g></svg>