<?xml version="1.0" encoding="UTF-8" standalone="no"?>
<svg
   xmlns:dc="http://purl.org/dc/elements/1.1/"
   xmlns:cc="http://creativecommons.org/ns#"
   xmlns:rdf="http://www.w3.org/1999/02/22-rdf-syntax-ns#"
   xmlns:svg="http://www.w3.org/2000/svg"
   xmlns="http://www.w3.org/2000/svg"
   xmlns:sodipodi="http://sodipodi.sourceforge.net/DTD/sodipodi-0.dtd"
   xmlns:inkscape="http://www.inkscape.org/namespaces/inkscape"
   id="svg3379"
   width="144.4975mm"
   height="118.31659mm"
   viewBox="0 0 511.99901 419.23201"
   version="1.1"
   inkscape:version="0.91 r13725"
   sodipodi:docname="logo.svg">
  <metadata
     id="metadata240">
    <rdf:RDF>
      <cc:Work
         rdf:about="">
        <dc:format>image/svg+xml</dc:format>
        <dc:type
           rdf:resource="http://purl.org/dc/dcmitype/StillImage" />
        <dc:title></dc:title>
      </cc:Work>
    </rdf:RDF>
  </metadata>
  <defs
     id="defs238" />
  <sodipodi:namedview
     pagecolor="#ffffff"
     bordercolor="#666666"
     borderopacity="1"
     objecttolerance="10"
     gridtolerance="10"
     guidetolerance="10"
     inkscape:pageopacity="0"
     inkscape:pageshadow="2"
     inkscape:window-width="667"
     inkscape:window-height="480"
     id="namedview236"
     showgrid="false"
     fit-margin-top="0"
     fit-margin-left="0"
     fit-margin-right="0"
     fit-margin-bottom="0"
     inkscape:zoom="0.22425739"
     inkscape:cx="270.77724"
     inkscape:cy="200.0109"
     inkscape:window-x="0"
     inkscape:window-y="27"
     inkscape:window-maximized="0"
     inkscape:current-layer="svg3379" />
  <g
     id="layer2"
     transform="translate(-101.27,-306.96)" />
  <g
     transform="translate(123.66718,4.10342)"
     id="g4" />
  <g
     transform="translate(123.66718,4.10342)"
     id="g6" />
  <g
     transform="translate(123.66718,4.10342)"
     id="g8" />
  <g
     transform="translate(123.66718,4.10342)"
     id="g10" />
  <g
     transform="translate(123.66718,4.10342)"
     id="g12" />
  <g
     transform="translate(123.66718,4.10342)"
     id="g14" />
  <g
     transform="translate(123.66718,4.10342)"
     id="g16" />
  <g
     transform="translate(123.66718,4.10342)"
     id="g18" />
  <g
     transform="translate(123.66718,4.10342)"
     id="g20" />
  <g
     transform="translate(123.66718,4.10342)"
     id="g22" />
  <g
     transform="translate(123.66718,4.10342)"
     id="g24" />
  <g
     transform="translate(123.66718,4.10342)"
     id="g26" />
  <g
     transform="translate(123.66718,4.10342)"
     id="g28" />
  <g
     transform="translate(123.66718,4.10342)"
     id="g30" />
  <g
     transform="translate(123.66718,4.10342)"
     id="g32" />
  <g
     transform="matrix(8.493608,0,0,7.144097,242.01125,190.72109)"
     id="g34" />
  <g
     transform="matrix(8.493608,0,0,7.144097,242.01125,190.72109)"
     id="g36" />
  <g
     transform="matrix(8.493608,0,0,7.144097,242.01125,190.72109)"
     id="g38" />
  <g
     transform="matrix(8.493608,0,0,7.144097,242.01125,190.72109)"
     id="g40" />
  <g
     transform="matrix(8.493608,0,0,7.144097,242.01125,190.72109)"
     id="g42" />
  <g
     transform="matrix(8.493608,0,0,7.144097,242.01125,190.72109)"
     id="g44" />
  <g
     transform="matrix(8.493608,0,0,7.144097,242.01125,190.72109)"
     id="g46" />
  <g
     transform="matrix(8.493608,0,0,7.144097,242.01125,190.72109)"
     id="g48" />
  <g
     transform="matrix(8.493608,0,0,7.144097,242.01125,190.72109)"
     id="g50" />
  <g
     transform="matrix(8.493608,0,0,7.144097,242.01125,190.72109)"
     id="g52" />
  <g
     transform="matrix(8.493608,0,0,7.144097,242.01125,190.72109)"
     id="g54" />
  <g
     transform="matrix(8.493608,0,0,7.144097,242.01125,190.72109)"
     id="g56" />
  <g
     transform="matrix(8.493608,0,0,7.144097,242.01125,190.72109)"
     id="g58" />
  <g
     transform="matrix(8.493608,0,0,7.144097,242.01125,190.72109)"
     id="g60" />
  <g
     transform="matrix(8.493608,0,0,7.144097,242.01125,190.72109)"
     id="g62" />
  <g
     transform="matrix(8.866549,0,0,6.961732,-302.01428,24.71935)"
     id="g64" />
  <g
     transform="matrix(8.866549,0,0,6.961732,-302.01428,24.71935)"
     id="g66" />
  <g
     transform="matrix(8.866549,0,0,6.961732,-302.01428,24.71935)"
     id="g68" />
  <g
     transform="matrix(8.866549,0,0,6.961732,-302.01428,24.71935)"
     id="g70" />
  <g
     transform="matrix(8.866549,0,0,6.961732,-302.01428,24.71935)"
     id="g72" />
  <g
     transform="matrix(8.866549,0,0,6.961732,-302.01428,24.71935)"
     id="g74" />
  <g
     transform="matrix(8.866549,0,0,6.961732,-302.01428,24.71935)"
     id="g76" />
  <g
     transform="matrix(8.866549,0,0,6.961732,-302.01428,24.71935)"
     id="g78" />
  <g
     transform="matrix(8.866549,0,0,6.961732,-302.01428,24.71935)"
     id="g80" />
  <g
     transform="matrix(8.866549,0,0,6.961732,-302.01428,24.71935)"
     id="g82" />
  <g
     transform="matrix(8.866549,0,0,6.961732,-302.01428,24.71935)"
     id="g84" />
  <g
     transform="matrix(8.866549,0,0,6.961732,-302.01428,24.71935)"
     id="g86" />
  <g
     transform="matrix(8.866549,0,0,6.961732,-302.01428,24.71935)"
     id="g88" />
  <g
     transform="matrix(8.866549,0,0,6.961732,-302.01428,24.71935)"
     id="g90" />
  <g
     transform="matrix(8.866549,0,0,6.961732,-302.01428,24.71935)"
     id="g92" />
  <g
     transform="matrix(8.751414,0,0,9.336426,20.62309,-61.22576)"
     id="g94" />
  <g
     transform="matrix(8.751414,0,0,9.336426,20.62309,-61.22576)"
     id="g96" />
  <g
     transform="matrix(8.751414,0,0,9.336426,20.62309,-61.22576)"
     id="g98" />
  <g
     transform="matrix(8.751414,0,0,9.336426,20.62309,-61.22576)"
     id="g100" />
  <g
     transform="matrix(8.751414,0,0,9.336426,20.62309,-61.22576)"
     id="g102" />
  <g
     transform="matrix(8.751414,0,0,9.336426,20.62309,-61.22576)"
     id="g104" />
  <g
     transform="matrix(8.751414,0,0,9.336426,20.62309,-61.22576)"
     id="g106" />
  <g
     transform="matrix(8.751414,0,0,9.336426,20.62309,-61.22576)"
     id="g108" />
  <g
     transform="matrix(8.751414,0,0,9.336426,20.62309,-61.22576)"
     id="g110" />
  <g
     transform="matrix(8.751414,0,0,9.336426,20.62309,-61.22576)"
     id="g112" />
  <g
     transform="matrix(8.751414,0,0,9.336426,20.62309,-61.22576)"
     id="g114" />
  <g
     transform="matrix(8.751414,0,0,9.336426,20.62309,-61.22576)"
     id="g116" />
  <g
     transform="matrix(8.751414,0,0,9.336426,20.62309,-61.22576)"
     id="g118" />
  <g
     transform="matrix(8.751414,0,0,9.336426,20.62309,-61.22576)"
     id="g120" />
  <g
     transform="matrix(8.751414,0,0,9.336426,20.62309,-61.22576)"
     id="g122" />
  <g
     transform="translate(5.91005,-47.23759)"
     id="g124" />
  <g
     transform="translate(5.91005,-47.23759)"
     id="g126" />
  <g
     transform="translate(5.91005,-47.23759)"
     id="g128" />
  <g
     transform="translate(5.91005,-47.23759)"
     id="g130" />
  <g
     transform="translate(5.91005,-47.23759)"
     id="g132" />
  <g
     transform="translate(5.91005,-47.23759)"
     id="g134" />
  <g
     transform="translate(5.91005,-47.23759)"
     id="g136" />
  <g
     transform="translate(5.91005,-47.23759)"
     id="g138" />
  <g
     transform="translate(5.91005,-47.23759)"
     id="g140" />
  <g
     transform="translate(5.91005,-47.23759)"
     id="g142" />
  <g
     transform="translate(5.91005,-47.23759)"
     id="g144" />
  <g
     transform="translate(5.91005,-47.23759)"
     id="g146" />
  <g
     transform="translate(5.91005,-47.23759)"
     id="g148" />
  <g
     transform="translate(5.91005,-47.23759)"
     id="g150" />
  <g
     transform="translate(5.91005,-47.23759)"
     id="g152" />
  <path
     d="m 503.742,377.937 0,33.032 c -41.544,0 -98.546,-37.051 -158.775,-37.051 -35.488,0 -57.729,14.644 -71.096,29.278 l -17.871,0 -22.021,-102.598 269.763,77.339 z"
     style="fill:#2da8ca"
     id="path154"
     inkscape:connector-curvature="0" />
  <path
     d="m 256,300.598 0,102.598 -17.87,0 c -13.367,-14.633 -35.609,-29.278 -71.096,-29.278 -60.229,0 -117.231,37.051 -158.775,37.051 l 0,-33.032 L 256,300.598 Z"
     style="fill:#2da8ca"
     id="path156"
     inkscape:connector-curvature="0" />
  <path
     d="m 503.742,45.314 0,332.624 c -41.544,0 -98.546,-37.051 -158.775,-37.051 -35.488,0 -57.729,14.644 -71.096,29.278 L 256,370.165 211.957,218.496 256,66.829 c 0,0 17.992,-58.566 88.967,-58.566 60.229,-10e-4 117.231,37.051 158.775,37.051 z"
     style="fill:#f7f6f5"
     id="path158"
     inkscape:connector-curvature="0" />
  <path
     d="m 256,66.829 0,303.335 -17.87,0 c -13.367,-14.644 -35.609,-29.278 -71.096,-29.278 -60.229,0 -117.231,37.051 -158.775,37.051 l 0,-332.623 C 49.803,45.314 106.805,8.263 167.034,8.263 238.008,8.262 256,66.829 256,66.829 Z"
     style="fill:#f7f6f5"
     id="path160"
     inkscape:connector-curvature="0" />
  <path
     d="m 264.258,345.677 0,-246.587 c 0,-4.562 -3.696,-8.258 -8.258,-8.258 -4.562,0 -8.258,3.696 -8.258,8.258 l 0,246.587 c 0,4.562 3.696,8.258 8.258,8.258 4.562,0 8.258,-3.696 8.258,-8.258 z"
     id="path162"
     inkscape:connector-curvature="0" />
  <path
     d="m 503.742,37.058 c -17.459,0 -39.214,-7.534 -62.247,-15.509 C 412.325,11.448 379.261,0 344.971,0 305.294,0 281.088,17.387 267.769,31.973 262.788,37.43 258.927,42.898 256.001,47.748 253.074,42.898 249.214,37.43 244.233,31.973 230.913,17.387 206.708,0 167.031,0 132.74,0 99.677,11.448 70.507,21.549 47.472,29.524 25.717,37.058 8.258,37.058 3.696,37.058 0,40.754 0,45.316 l 0,332.626 c 0,4.562 3.696,8.258 8.258,8.258 20.238,0 43.269,-7.975 67.651,-16.418 27.94,-9.674 59.608,-20.64 91.119,-20.64 27.02,0 48.891,8.947 65.005,26.593 3.074,3.367 8.299,3.604 11.667,0.529 3.368,-3.075 3.604,-8.299 0.529,-11.667 -13.32,-14.585 -37.525,-31.972 -77.201,-31.972 -34.291,0 -67.354,11.448 -96.524,21.549 -19.528,6.764 -38.138,13.206 -53.989,15.012 l 0,-316.022 c 18.158,-1.73 38.268,-8.694 59.393,-16.009 27.94,-9.674 59.608,-20.64 91.119,-20.64 63.731,0 80.406,50.608 81.077,52.735 1.066,3.466 4.268,5.833 7.895,5.833 3.627,0 6.829,-2.366 7.895,-5.833 0.161,-0.527 16.938,-52.735 81.077,-52.735 31.512,0 63.18,10.966 91.119,20.64 21.126,7.316 41.235,14.279 59.393,16.009 l 0,316.022 c -15.851,-1.806 -34.461,-8.248 -53.989,-15.011 -29.17,-10.101 -62.234,-21.549 -96.524,-21.549 -39.678,0 -63.884,17.387 -77.202,31.973 -3.075,3.369 -2.839,8.592 0.529,11.667 3.369,3.075 8.593,2.839 11.667,-0.529 16.114,-17.647 37.985,-26.594 65.006,-26.594 31.512,0 63.18,10.966 91.12,20.64 24.383,8.443 47.414,16.418 67.651,16.418 4.562,0 8.258,-3.696 8.258,-8.258 l 0,-332.627 c 10e-4,-4.561 -3.695,-8.258 -8.257,-8.258 z"
     id="path164"
     inkscape:connector-curvature="0" />
  <path
     d="m 503.742,402.716 c -17.459,0 -39.214,-7.534 -62.247,-15.509 -29.17,-10.101 -62.234,-21.549 -96.524,-21.549 -37.264,0 -60.88,15.336 -74.648,29.284 l -28.647,-0.001 c -13.769,-13.948 -37.386,-29.283 -74.647,-29.283 -34.291,0 -67.354,11.448 -96.524,21.549 -23.033,7.975 -44.788,15.509 -62.247,15.509 -4.562,0 -8.258,3.696 -8.258,8.258 0,4.562 3.696,8.258 8.258,8.258 20.238,0 43.269,-7.975 67.651,-16.418 27.94,-9.674 59.608,-20.64 91.119,-20.64 27.02,0 48.891,8.947 65.005,26.593 1.565,1.713 3.778,2.689 6.098,2.689 l 35.734,10e-4 c 2.32,0 4.533,-0.977 6.098,-2.689 16.114,-17.647 37.985,-26.594 65.006,-26.594 31.512,0 63.18,10.966 91.12,20.64 24.383,8.443 47.415,16.418 67.651,16.418 4.562,0 8.258,-3.696 8.258,-8.258 0,-4.562 -3.694,-8.258 -8.256,-8.258 z"
     id="path166"
     inkscape:connector-curvature="0" />
  <g
     transform="translate(2.6e-4,-46.38389)"
     id="g168" />
  <g
     transform="translate(2.6e-4,-46.38389)"
     id="g170" />
  <g
     transform="translate(2.6e-4,-46.38389)"
     id="g172" />
  <g
     transform="translate(2.6e-4,-46.38389)"
     id="g174" />
  <g
     transform="translate(2.6e-4,-46.38389)"
     id="g176" />
  <g
     transform="translate(2.6e-4,-46.38389)"
     id="g178" />
  <g
     transform="translate(2.6e-4,-46.38389)"
     id="g180" />
  <g
     transform="translate(2.6e-4,-46.38389)"
     id="g182" />
  <g
     transform="translate(2.6e-4,-46.38389)"
     id="g184" />
  <g
     transform="translate(2.6e-4,-46.38389)"
     id="g186" />
  <g
     transform="translate(2.6e-4,-46.38389)"
     id="g188" />
  <g
     transform="translate(2.6e-4,-46.38389)"
     id="g190" />
  <g
     transform="translate(2.6e-4,-46.38389)"
     id="g192" />
  <g
     transform="translate(2.6e-4,-46.38389)"
     id="g194" />
  <g
     transform="translate(2.6e-4,-46.38389)"
     id="g196" />
  <g
     transform="matrix(0.659292,0,0,0.66495,105.43692,21.949)"
     id="g198">
    <path
       style="fill:#ccecff"
       d="m 159.477,88.683 c 15.846,15.818 18.816,39.605 8.945,58.442 L 325.294,303.997 304.081,325.21 147.209,168.338 138.264,109.896 78.259,49.891 78.217,7.507 l 81.26,81.176 z"
       id="path200"
       inkscape:connector-curvature="0" />
    <path
       style="fill:#edf8ff"
       d="m 138.264,109.896 c 15.846,15.818 18.816,39.605 8.945,58.442 -18.88,9.744 -42.582,6.802 -58.393,-8.994 L 7.499,78.126 l 42.525,0 60.005,60.005 28.235,-28.235 z"
       id="path202"
       inkscape:connector-curvature="0" />
    <rect
       x="210.446"
       y="153.647"
       transform="matrix(-0.7071,-0.7071,0.7071,-0.7071,211.8433,577.1075)"
       style="fill:#99d9ff"
       width="29.996"
       height="182.06599"
       id="rect204" />
    <path
       style="fill:#b1786b"
       d="m 155.362,300.504 12.374,40.659 -113.137,113.136 c -10.861,10.847 -28.369,10.96 -39.11,0.219 L 155.362,300.504 Z"
       id="path206"
       inkscape:connector-curvature="0" />
    <path
       style="fill:#fda162"
       d="m 128.853,302.279 33.581,5.296 L 15.489,454.519 C 4.755,443.785 4.854,426.277 15.715,415.416 L 128.853,302.279 Z"
       id="path208"
       inkscape:connector-curvature="0" />
    <polygon
       style="fill:#99d9ff"
       points="148.291,321.717 151.826,304.039 169.504,300.504 188.95,319.949 167.736,341.162 "
       id="polygon210" />
    <rect
       x="135.433"
       y="286.39099"
       transform="matrix(-0.7071,-0.7071,0.7071,-0.7071,41.5476,619.9919)"
       style="fill:#ccecff"
       width="27.49"
       height="30"
       id="rect212" />
    <path
       style="fill:#b1786b"
       d="m 300.503,314.641 40.659,-12.374 113.137,113.137 c 10.847,10.861 10.96,28.369 0.219,39.11 L 300.503,314.641 Z"
       id="path214"
       inkscape:connector-curvature="0" />
    <path
       style="fill:#fda162"
       d="m 302.278,341.15 5.296,-33.581 146.944,146.944 c -10.734,10.734 -28.242,10.635 -39.103,-0.226 L 302.278,341.15 Z"
       id="path216"
       inkscape:connector-curvature="0" />
    <polygon
       style="fill:#99d9ff"
       points="321.716,321.712 304.039,318.176 300.503,300.499 319.949,281.053 341.162,302.266 "
       id="polygon218" />
    <rect
       x="287.646"
       y="305.82401"
       transform="matrix(-0.7071,0.7071,-0.7071,-0.7071,741.363,334.5661)"
       style="fill:#ccecff"
       width="27.49"
       height="30"
       id="rect220" />
    <path
       style="fill:#99d9ff"
       d="m 291.217,200.105 21.213,21.213 c 11.667,11.667 30.752,11.66 42.412,-0.014 l 98.91,-98.981 c 11.66,-11.674 11.667,-30.773 0,-42.441 L 432.553,58.655 291.217,200.105 Z"
       id="path222"
       inkscape:connector-curvature="0" />
    <path
       style="fill:#ccecff"
       d="m 347.792,16.264 c 11.66,-11.674 30.752,-11.674 42.412,0 l 42.349,42.391 c 11.653,11.681 11.646,30.78 -0.014,42.455 l -98.91,98.981 c -11.66,11.674 -30.745,11.681 -42.412,0.014 L 248.84,157.728 c -11.667,-11.667 -11.667,-30.759 -0.007,-42.433 l 98.959,-99.031 z"
       id="path224"
       inkscape:connector-curvature="0" />
    <path
       d="m 325.252,275.76 c -1.407,-1.406 -3.314,-2.196 -5.304,-2.196 -1.99,0 -3.896,0.79 -5.304,2.196 l -3.49,3.49 -44.233,-44.232 24.299,-24.301 15.904,15.903 c 7.058,7.058 16.473,10.944 26.509,10.944 10.041,0 19.46,-3.891 26.519,-10.955 l 98.906,-98.982 c 14.613,-14.625 14.614,-38.421 0.002,-53.046 L 395.505,10.964 C 388.446,3.901 379.031,0.01 368.993,0.01 c -10.037,0 -19.452,3.89 -26.509,10.953 l -98.957,99.032 c -14.614,14.626 -14.609,38.419 0.01,53.04 l 15.864,15.864 -24.298,24.301 -57.68,-57.68 c 8.663,-21.265 3.89,-45.629 -12.644,-62.142 L 83.513,2.202 C 81.367,0.058 78.139,-0.581 75.337,0.582 72.535,1.745 70.71,4.482 70.712,7.517 L 70.755,49.9 c 0.002,1.986 0.792,3.891 2.197,5.296 L 127.658,109.9 110.025,127.533 55.32,72.827 C 53.914,71.421 52.006,70.631 50.017,70.631 L 7.501,70.629 c -3.035,0 -5.77,1.828 -6.93,4.632 -1.161,2.804 -0.518,6.03 1.629,8.175 l 81.312,81.223 c 16.464,16.443 40.792,21.214 62.042,12.634 l 41.821,41.821 c 1.464,1.464 3.384,2.196 5.303,2.196 1.919,0 3.839,-0.732 5.303,-2.196 2.929,-2.93 2.929,-7.678 0,-10.607 l -45.509,-45.509 c -2.313,-2.313 -5.857,-2.858 -8.76,-1.353 -16.522,8.583 -36.457,5.528 -49.601,-7.6 L 25.622,85.63 l 21.289,0.001 57.812,57.812 c 2.929,2.928 7.678,2.928 10.606,0 l 28.24,-28.239 c 1.407,-1.407 2.197,-3.314 2.197,-5.304 0,-1.99 -0.79,-3.896 -2.197,-5.304 L 85.753,46.782 85.732,25.62 154.179,93.992 c 13.198,13.181 16.25,33.134 7.596,49.649 -1.523,2.906 -0.98,6.465 1.34,8.785 l 61.382,61.381 -65.543,65.551 -3.594,-3.594 c -1.406,-1.406 -3.314,-2.196 -5.303,-2.196 -1.989,0 -3.897,0.79 -5.303,2.196 l -21.208,21.208 c -0.011,0.011 -113.143,113.143 -113.143,113.143 -13.764,13.765 -13.861,36.064 -0.216,49.712 6.565,6.565 15.32,10.182 24.65,10.182 9.446,0 18.346,-3.692 25.06,-10.398 L 194.247,325.26 c 2.929,-2.93 2.929,-7.678 0,-10.607 l -3.477,-3.477 65.543,-65.549 44.233,44.232 -10.606,10.606 -28.323,-28.323 c -2.93,-2.928 -7.678,-2.928 -10.607,0 -2.929,2.93 -2.929,7.678 0,10.607 l 28.323,28.323 -3.577,3.577 c -1.406,1.407 -2.196,3.314 -2.196,5.304 0,1.99 0.79,3.896 2.196,5.304 l 21.211,21.211 c 0.003,0.003 113.139,113.138 113.139,113.138 6.709,6.708 15.606,10.402 25.054,10.403 9.331,0 18.088,-3.618 24.658,-10.188 13.637,-13.638 13.54,-35.936 -0.218,-49.711 L 325.252,275.76 Z M 254.138,120.598 353.095,21.565 c 4.223,-4.227 9.869,-6.555 15.897,-6.555 6.029,0 11.676,2.329 15.899,6.556 l 63.555,63.617 c 8.771,8.779 8.771,23.063 -0.002,31.842 l -98.906,98.982 c -4.225,4.229 -9.874,6.558 -15.907,6.558 -6.03,0 -11.678,-2.327 -15.902,-6.552 l -21.204,-21.204 c -0.006,-0.006 -21.209,-21.208 -21.209,-21.208 -0.013,-0.013 -21.172,-21.172 -21.172,-21.172 -8.773,-8.774 -8.776,-23.053 -0.006,-31.831 z M 49.294,449 c -3.879,3.875 -9.013,6.009 -14.456,6.009 -5.323,0 -10.311,-2.056 -14.043,-5.788 -7.797,-7.798 -7.701,-20.582 0.215,-28.498 L 128.844,312.889 157.125,341.17 49.294,449 Z m 118.437,-118.438 -28.281,-28.281 10.606,-10.606 3.59,3.59 c 0.008,0.008 21.213,21.214 21.213,21.214 0.001,0.001 3.477,3.477 3.477,3.477 l -10.605,10.606 z m 1.829,-40.597 70.811,-70.82 c 0.069,-0.069 29.636,-29.639 29.636,-29.639 l 10.605,10.605 -29.58,29.583 c -0.044,0.044 -70.869,70.875 -70.869,70.875 L 169.56,289.965 Z m 146.888,5.206 c 0.019,-0.019 3.5,-3.5 3.5,-3.5 l 10.606,10.606 -28.281,28.281 -10.606,-10.606 24.781,-24.781 z m 132.765,154.043 c -3.737,3.737 -8.728,5.795 -14.052,5.795 -5.44,0 -10.571,-2.135 -14.446,-6.011 L 312.88,341.165 l 28.281,-28.281 107.83,107.83 c 7.914,7.923 8.013,20.708 0.222,28.5 z"
       id="path226"
       inkscape:connector-curvature="0" />
    <path
       d="m 335.576,187.551 c -2.272,2.127 -3.061,5.54 -1.717,8.541 1.247,2.784 3.983,4.437 6.849,4.437 1.024,0 2.065,-0.211 3.062,-0.657 1.282,-0.574 1.282,-0.574 15.519,-14.802 l 71.548,-71.537 c 2.929,-2.929 2.929,-7.678 -10e-4,-10.606 -2.928,-2.928 -7.677,-2.929 -10.606,10e-4 -28.299,28.298 -81.794,81.789 -84.654,84.623 z"
       id="path228"
       inkscape:connector-curvature="0" />
    <path
       d="m 277.095,136.924 c 2.067,0 4.066,-0.86 5.487,-2.382 2.832,-2.865 56.297,-56.43 84.573,-84.755 2.927,-2.932 2.923,-7.681 -0.009,-10.606 -2.933,-2.929 -7.682,-2.922 -10.606,0.009 l -71.496,71.636 c -14.243,14.276 -14.243,14.276 -14.818,15.596 -1.658,3.796 0.076,8.217 3.872,9.874 0.977,0.425 1.996,0.628 2.997,0.628 z"
       id="path230"
       inkscape:connector-curvature="0" />
    <path
       d="m 312.681,168.876 c -1.658,3.796 0.076,8.217 3.872,9.874 0.977,0.427 1.995,0.629 2.997,0.629 2.067,0 4.066,-0.86 5.487,-2.382 2.832,-2.865 56.297,-56.43 84.573,-84.755 2.927,-2.932 2.923,-7.681 -0.009,-10.606 -2.932,-2.928 -7.681,-2.921 -10.606,0.009 L 327.5,153.28 c -14.243,14.276 -14.243,14.276 -14.819,15.596 z"
       id="path232"
       inkscape:connector-curvature="0" />
    <path
       d="m 291.469,147.663 c -1.658,3.796 0.076,8.217 3.872,9.874 0.977,0.427 1.995,0.629 2.997,0.629 2.067,0 4.066,-0.86 5.487,-2.382 2.832,-2.865 56.297,-56.43 84.573,-84.755 2.927,-2.932 2.923,-7.681 -0.009,-10.606 -2.932,-2.929 -7.681,-2.922 -10.606,0.009 l -71.496,71.636 c -14.243,14.275 -14.243,14.275 -14.818,15.595 z"
       id="path234"
       inkscape:connector-curvature="0" />
  </g>
</svg>
