<?xml version="1.0" encoding="iso-8859-1"?>
<!-- Generator: Adobe Illustrator 19.0.0, SVG Export Plug-In . SVG Version: 6.00 Build 0)  -->
<svg version="1.1" id="Layer_1" xmlns="http://www.w3.org/2000/svg" xmlns:xlink="http://www.w3.org/1999/xlink" x="0px" y="0px"
	 viewBox="0 0 511.991 511.991" style="enable-background:new 0 0 511.991 511.991;" xml:space="preserve">
<g>
	<g>
		<g>
			<path d="M490.658,10.641H328.823c-25.891,0-54.101,14.916-72.828,35.943c-18.726-21.027-46.937-35.943-72.828-35.943H21.333
				C9.551,10.641,0,20.193,0,31.975v405.333c0,11.782,9.551,21.333,21.333,21.333h159.679c25.518,5.325,40.9,12.882,51.739,26.428
				l5.429,6.781c1.306,1.949,2.917,3.632,4.744,5.018c3.922,3.109,8.525,4.508,13.072,4.466c4.547,0.042,9.15-1.357,13.072-4.466
				c1.827-1.386,3.439-3.069,4.744-5.018l5.426-6.778c10.842-13.549,26.223-21.106,51.742-26.431h159.679
				c11.782,0,21.333-9.551,21.333-21.333V31.975C511.991,20.193,502.44,10.641,490.658,10.641z M187.352,416.389l-4.184-0.414
				H42.667V53.308h140.501c21.522,0,51.164,24.973,51.484,42.38c0.001,0.092,0.006,0.19,0.006,0.28c0,0.001,0,0.002,0,0.003
				c0,0.001,0,0.002,0,0.004v336.217C221.417,425.04,205.894,420.097,187.352,416.389z M469.325,415.975H328.823l-4.184,0.414
				c-18.542,3.708-34.065,8.651-47.306,15.803V95.975c0-0.001,0-0.002,0-0.004c0-0.001,0-0.002,0-0.003
				c0-0.09,0.005-0.188,0.006-0.28c0.32-17.407,29.961-42.38,51.484-42.38h140.501V415.975z"/>
			<path d="M170.662,117.308h-64c-11.782,0-21.333,9.551-21.333,21.333c0,11.782,9.551,21.333,21.333,21.333h64
				c11.782,0,21.333-9.551,21.333-21.333C191.996,126.859,182.444,117.308,170.662,117.308z"/>
			<path d="M170.662,202.641h-64c-11.782,0-21.333,9.551-21.333,21.333c0,11.782,9.551,21.333,21.333,21.333h64
				c11.782,0,21.333-9.551,21.333-21.333C191.996,212.193,182.444,202.641,170.662,202.641z"/>
			<path d="M170.662,287.975h-64c-11.782,0-21.333,9.551-21.333,21.333c0,11.782,9.551,21.333,21.333,21.333h64
				c11.782,0,21.333-9.551,21.333-21.333C191.996,297.526,182.444,287.975,170.662,287.975z"/>
			<path d="M319.996,138.641c0,11.782,9.551,21.333,21.333,21.333h64c11.782,0,21.333-9.551,21.333-21.333
				c0-11.782-9.551-21.333-21.333-21.333h-64C329.547,117.308,319.996,126.859,319.996,138.641z"/>
			<path d="M405.329,202.641h-64c-11.782,0-21.333,9.551-21.333,21.333c0,11.782,9.551,21.333,21.333,21.333h64
				c11.782,0,21.333-9.551,21.333-21.333C426.662,212.193,417.111,202.641,405.329,202.641z"/>
			<path d="M405.329,287.975h-64c-11.782,0-21.333,9.551-21.333,21.333c0,11.782,9.551,21.333,21.333,21.333h64
				c11.782,0,21.333-9.551,21.333-21.333C426.662,297.526,417.111,287.975,405.329,287.975z"/>
		</g>
	</g>
</g>
<g>
</g>
<g>
</g>
<g>
</g>
<g>
</g>
<g>
</g>
<g>
</g>
<g>
</g>
<g>
</g>
<g>
</g>
<g>
</g>
<g>
</g>
<g>
</g>
<g>
</g>
<g>
</g>
<g>
</g>
</svg>
